ffmpeg started on 2025-06-20 at 17:33:37
Report written to "D:\Convert\FFMetrics\reports\psnr_report-6.txt"
Log level: 32
Command line:
ffmpeg -hide_banner -nostdin -i "G:\\\xc0\xed\xe8\xec\xe5\\[\xd2\xee\xef]\\\xc2\xee\xeb\xf7\xe8\xf6\xe0 \xe8 \xef\xf0\xff\xed\xee\xf1\xf2\xe8\\\xd2\xee\xf0\xe3\xee\xe2\xe5\xf6 \xe2\xf1\xf2\xf0\xe5\xf7\xe0\xe5\xf2 \xec\xf3\xe4\xf0\xf3\xfe \xe2\xee\xeb\xf7\xe8\xf6\xf3\\DC_Ookami_to_Koushinryou_Merchant_Meets_the_Wise_Wolf_24_Telegram_HEVC.mkv" -i "G:\\\xc0\xed\xe8\xec\xe5\\[\xd2\xee\xef]\\\xc2\xee\xeb\xf7\xe8\xf6\xe0 \xe8 \xef\xf0\xff\xed\xee\xf1\xf2\xe8\\\xd2\xee\xf0\xe3\xee\xe2\xe5\xf6 \xe2\xf1\xf2\xf0\xe5\xf7\xe0\xe5\xf2 \xec\xf3\xe4\xf0\xf3\xfe \xe2\xee\xeb\xf7\xe8\xf6\xf3\\DC_Ookami_to_Koushinryou_Merchant_Meets_the_Wise_Wolf_24_Telegram.mp4" -lavfi "[0:v]settb=AVTB,setpts=PTS-STARTPTS,format=pix_fmts=yuv420p10,fps=24000/1001,scale=1920:1080:flags=bicubic[main];[1:v]settb=AVTB,setpts=PTS-STARTPTS,format=pix_fmts=yuv420p,fps=24000/1001,scale=1920:1080:flags=bicubic[ref];[main][ref]psnr=eof_action=endall:stats_file='D\\:/Convert/FFMetrics/logs/psnr_logfile-6.txt'" -f null -
Input #0, matroska,webm, from 'G:\Аниме\[Топ]\Волчица и пряности\Торговец встречает мудрую волчицу\DC_Ookami_to_Koushinryou_Merchant_Meets_the_Wise_Wolf_24_Telegram_HEVC.mkv':
  Metadata:
    COMPATIBLE_BRANDS: isomiso2avc1mp41
    MAJOR_BRAND     : isom
    MINOR_VERSION   : 512
    ENCODER         : Lavf61.7.100
  Duration: 00:23:57.65, start: -0.021000, bitrate: 947 kb/s
  Stream #0:0: Video: hevc (Main 10), yuv420p10le(tv, bt709, progressive), 1920x1080 [SAR 1:1 DAR 16:9], 23.98 fps, 23.98 tbr, 1k tbn (default)
      Metadata:
        HANDLER_NAME    : VideoHandler
        VENDOR_ID       : [0][0][0][0]
        ENCODER         : Lavc61.19.100 libx265
        BPS             : 751132
        DURATION        : 00:23:56.559708333
        NUMBER_OF_FRAMES: 34443
        NUMBER_OF_BYTES : 134880818
        _STATISTICS_WRITING_APP: mkvpropedit v66.0.0 ('Josie') 64-bit
        _STATISTICS_WRITING_DATE_UTC: 2025-06-20 13:13:32
        _STATISTICS_TAGS: BPS DURATION NUMBER_OF_FRAMES NUMBER_OF_BYTES
  Stream #0:1: Audio: aac (LC), 48000 Hz, stereo, fltp (default)
      Metadata:
        HANDLER_NAME    : SoundHandler
        VENDOR_ID       : [0][0][0][0]
        ENCODER         : Lavc61.19.100 aac
        BPS             : 193145
        DURATION        : 00:23:57.653000000
        NUMBER_OF_FRAMES: 67391
        NUMBER_OF_BYTES : 34709525
        _STATISTICS_WRITING_APP: mkvpropedit v66.0.0 ('Josie') 64-bit
        _STATISTICS_WRITING_DATE_UTC: 2025-06-20 13:13:32
        _STATISTICS_TAGS: BPS DURATION NUMBER_OF_FRAMES NUMBER_OF_BYTES
Input #1, mov,mp4,m4a,3gp,3g2,mj2, from 'G:\Аниме\[Топ]\Волчица и пряности\Торговец встречает мудрую волчицу\DC_Ookami_to_Koushinryou_Merchant_Meets_the_Wise_Wolf_24_Telegram.mp4':
  Metadata:
    major_brand     : isom
    minor_version   : 512
    compatible_brands: isomiso2avc1mp41
    encoder         : Lavf61.1.100
  Duration: 00:23:57.63, start: 0.000000, bitrate: 3638 kb/s
  Stream #1:0[0x1](und): Video: h264 (High) (avc1 / 0x31637661), yuv420p(tv, bt709, progressive), 1920x1080 [SAR 1:1 DAR 16:9], 3493 kb/s, 23.98 fps, 23.98 tbr, 24k tbn (default)
      Metadata:
        handler_name    : VideoHandler
        vendor_id       : [0][0][0][0]
        encoder         : Lavc61.3.100 h264_qsv
  Stream #1:1[0x2](und): Audio: aac (HE-AACv2) (mp4a / 0x6134706D), 48000 Hz, stereo, fltp, 144 kb/s (default)
      Metadata:
        handler_name    : SoundHandler
        vendor_id       : [0][0][0][0]
Stream mapping:
  Stream #0:0 (hevc) -> settb:default
  Stream #1:0 (h264) -> settb:default
  psnr:default -> Stream #0:0 (wrapped_avframe)
  Stream #0:1 -> #0:1 (aac (native) -> pcm_s16le (native))
Output #0, null, to 'pipe:':
  Metadata:
    COMPATIBLE_BRANDS: isomiso2avc1mp41
    MAJOR_BRAND     : isom
    MINOR_VERSION   : 512
    encoder         : Lavf61.7.100
  Stream #0:0: Video: wrapped_avframe, yuv420p10le(tv, bt709, progressive), 1920x1080 [SAR 1:1 DAR 16:9], q=2-31, 200 kb/s, 23.98 fps, 23.98 tbn
      Metadata:
        encoder         : Lavc61.19.100 wrapped_avframe
  Stream #0:1: Audio: pcm_s16le, 48000 Hz, stereo, s16, 1536 kb/s (default)
      Metadata:
        HANDLER_NAME    : SoundHandler
        VENDOR_ID       : [0][0][0][0]
        _STATISTICS_TAGS: BPS DURATION NUMBER_OF_FRAMES NUMBER_OF_BYTES
        BPS             : 193145
        DURATION        : 00:23:57.653000000
        NUMBER_OF_FRAMES: 67391
        NUMBER_OF_BYTES : 34709525
        _STATISTICS_WRITING_APP: mkvpropedit v66.0.0 ('Josie') 64-bit
        _STATISTICS_WRITING_DATE_UTC: 2025-06-20 13:13:32
        encoder         : Lavc61.19.100 pcm_s16le
frame=  169 fps=0.0 q=-0.0 size=N/A time=00:00:07.04 bitrate=N/A speed=13.9x    frame=  420 fps=407 q=-0.0 size=N/A time=00:00:17.51 bitrate=N/A speed=  17x    frame=  664 fps=431 q=-0.0 size=N/A time=00:00:27.69 bitrate=N/A speed=  18x    frame=  906 fps=439 q=-0.0 size=N/A time=00:00:37.78 bitrate=N/A speed=18.3x    frame= 1136 fps=442 q=-0.0 size=N/A time=00:00:47.38 bitrate=N/A speed=18.4x    frame= 1397 fps=452 q=-0.0 size=N/A time=00:00:58.26 bitrate=N/A speed=18.8x    frame= 1588 fps=441 q=-0.0 size=N/A time=00:01:06.23 bitrate=N/A speed=18.4x    frame= 1781 fps=432 q=-0.0 size=N/A time=00:01:14.28 bitrate=N/A speed=  18x    frame= 1979 fps=426 q=-0.0 size=N/A time=00:01:22.54 bitrate=N/A speed=17.8x    frame= 2199 fps=427 q=-0.0 size=N/A time=00:01:31.71 bitrate=N/A speed=17.8x    frame= 2380 fps=420 q=-0.0 size=N/A time=00:01:39.26 bitrate=N/A speed=17.5x    frame= 2592 fps=419 q=-0.0 size=N/A time=00:01:48.10 bitrate=N/A speed=17.5x    frame= 2768 fps=413 q=-0.0 size=N/A time=00:01:55.44 bitrate=N/A speed=17.2x    frame= 2998 fps=415 q=-0.0 size=N/A time=00:02:05.04 bitrate=N/A speed=17.3x    frame= 3198 fps=414 q=-0.0 size=N/A time=00:02:13.38 bitrate=N/A speed=17.3x    frame= 3391 fps=411 q=-0.0 size=N/A time=00:02:21.43 bitrate=N/A speed=17.1x    frame= 3563 fps=407 q=-0.0 size=N/A time=00:02:28.60 bitrate=N/A speed=  17x    frame= 3818 fps=411 q=-0.0 size=N/A time=00:02:39.24 bitrate=N/A speed=17.2x    frame= 4066 fps=415 q=-0.0 size=N/A time=00:02:49.58 bitrate=N/A speed=17.3x    frame= 4330 fps=420 q=-0.0 size=N/A time=00:03:00.59 bitrate=N/A speed=17.5x    frame= 4593 fps=424 q=-0.0 size=N/A time=00:03:11.56 bitrate=N/A speed=17.7x    frame= 4867 fps=429 q=-0.0 size=N/A time=00:03:22.99 bitrate=N/A speed=17.9x    frame= 5125 fps=432 q=-0.0 size=N/A time=00:03:33.75 bitrate=N/A speed=  18x    frame= 5392 fps=436 q=-0.0 size=N/A time=00:03:44.89 bitrate=N/A speed=18.2x    frame= 5666 fps=440 q=-0.0 size=N/A time=00:03:56.31 bitrate=N/A speed=18.3x    frame= 5938 fps=443 q=-0.0 size=N/A time=00:04:07.66 bitrate=N/A speed=18.5x    frame= 6203 fps=446 q=-0.0 size=N/A time=00:04:18.71 bitrate=N/A speed=18.6x    frame= 6413 fps=444 q=-0.0 size=N/A time=00:04:27.47 bitrate=N/A speed=18.5x    frame= 6666 fps=446 q=-0.0 size=N/A time=00:04:38.02 bitrate=N/A speed=18.6x    frame= 6944 fps=449 q=-0.0 size=N/A time=00:04:49.62 bitrate=N/A speed=18.7x    frame= 7201 fps=451 q=-0.0 size=N/A time=00:05:00.34 bitrate=N/A speed=18.8x    frame= 7446 fps=451 q=-0.0 size=N/A time=00:05:10.56 bitrate=N/A speed=18.8x    frame= 7715 fps=454 q=-0.0 size=N/A time=00:05:21.77 bitrate=N/A speed=18.9x    frame= 7980 fps=455 q=-0.0 size=N/A time=00:05:32.83 bitrate=N/A speed=  19x    frame= 8237 fps=457 q=-0.0 size=N/A time=00:05:43.55 bitrate=N/A speed=  19x    frame= 8473 fps=456 q=-0.0 size=N/A time=00:05:53.39 bitrate=N/A speed=  19x    frame= 8699 fps=456 q=-0.0 size=N/A time=00:06:02.82 bitrate=N/A speed=  19x    frame= 8912 fps=455 q=-0.0 size=N/A time=00:06:11.70 bitrate=N/A speed=  19x    frame= 9161 fps=456 q=-0.0 size=N/A time=00:06:22.09 bitrate=N/A speed=  19x    frame= 9433 fps=457 q=-0.0 size=N/A time=00:06:33.43 bitrate=N/A speed=19.1x    frame= 9688 fps=458 q=-0.0 size=N/A time=00:06:44.07 bitrate=N/A speed=19.1x    frame= 9957 fps=460 q=-0.0 size=N/A time=00:06:55.28 bitrate=N/A speed=19.2x    frame=10207 fps=460 q=-0.0 size=N/A time=00:07:05.71 bitrate=N/A speed=19.2x    frame=10464 fps=461 q=-0.0 size=N/A time=00:07:16.43 bitrate=N/A speed=19.2x    frame=10672 fps=460 q=-0.0 size=N/A time=00:07:25.11 bitrate=N/A speed=19.2x    frame=10897 fps=459 q=-0.0 size=N/A time=00:07:34.49 bitrate=N/A speed=19.2x    frame=11107 fps=458 q=-0.0 size=N/A time=00:07:43.25 bitrate=N/A speed=19.1x    frame=11355 fps=459 q=-0.0 size=N/A time=00:07:53.59 bitrate=N/A speed=19.1x    frame=11627 fps=460 q=-0.0 size=N/A time=00:08:04.94 bitrate=N/A speed=19.2x    frame=11887 fps=461 q=-0.0 size=N/A time=00:08:15.78 bitrate=N/A speed=19.2x    frame=12132 fps=462 q=-0.0 size=N/A time=00:08:26.00 bitrate=N/A speed=19.2x    frame=12397 fps=462 q=-0.0 size=N/A time=00:08:37.05 bitrate=N/A speed=19.3x    frame=12651 fps=463 q=-0.0 size=N/A time=00:08:47.65 bitrate=N/A speed=19.3x    frame=12899 fps=463 q=-0.0 size=N/A time=00:08:57.99 bitrate=N/A speed=19.3x    frame=13144 fps=463 q=-0.0 size=N/A time=00:09:08.21 bitrate=N/A speed=19.3x    frame=13385 fps=464 q=-0.0 size=N/A time=00:09:18.26 bitrate=N/A speed=19.3x    frame=13640 fps=464 q=-0.0 size=N/A time=00:09:28.90 bitrate=N/A speed=19.4x    frame=13893 fps=465 q=-0.0 size=N/A time=00:09:39.45 bitrate=N/A speed=19.4x    frame=14157 fps=465 q=-0.0 size=N/A time=00:09:50.46 bitrate=N/A speed=19.4x    frame=14401 fps=466 q=-0.0 size=N/A time=00:10:00.64 bitrate=N/A speed=19.4x    frame=14650 fps=466 q=-0.0 size=N/A time=00:10:11.02 bitrate=N/A speed=19.4x    frame=14922 fps=467 q=-0.0 size=N/A time=00:10:22.37 bitrate=N/A speed=19.5x    frame=15168 fps=467 q=-0.0 size=N/A time=00:10:32.63 bitrate=N/A speed=19.5x    frame=15431 fps=468 q=-0.0 size=N/A time=00:10:43.60 bitrate=N/A speed=19.5x    frame=15699 fps=468 q=-0.0 size=N/A time=00:10:54.77 bitrate=N/A speed=19.5x    frame=15957 fps=469 q=-0.0 size=N/A time=00:11:05.53 bitrate=N/A speed=19.6x    frame=16212 fps=469 q=-0.0 size=N/A time=00:11:16.17 bitrate=N/A speed=19.6x    frame=16440 fps=469 q=-0.0 size=N/A time=00:11:25.68 bitrate=N/A speed=19.6x    frame=16692 fps=469 q=-0.0 size=N/A time=00:11:36.19 bitrate=N/A speed=19.6x    frame=16949 fps=470 q=-0.0 size=N/A time=00:11:46.91 bitrate=N/A speed=19.6x    frame=17207 fps=470 q=-0.0 size=N/A time=00:11:57.67 bitrate=N/A speed=19.6x    frame=17471 fps=471 q=-0.0 size=N/A time=00:12:08.68 bitrate=N/A speed=19.6x    frame=17733 fps=471 q=-0.0 size=N/A time=00:12:19.61 bitrate=N/A speed=19.7x    frame=17994 fps=472 q=-0.0 size=N/A time=00:12:30.49 bitrate=N/A speed=19.7x    frame=18246 fps=472 q=-0.0 size=N/A time=00:12:41.01 bitrate=N/A speed=19.7x    frame=18500 fps=472 q=-0.0 size=N/A time=00:12:51.60 bitrate=N/A speed=19.7x    frame=18741 fps=472 q=-0.0 size=N/A time=00:13:01.65 bitrate=N/A speed=19.7x    frame=18993 fps=472 q=-0.0 size=N/A time=00:13:12.16 bitrate=N/A speed=19.7x    frame=19240 fps=472 q=-0.0 size=N/A time=00:13:22.46 bitrate=N/A speed=19.7x    frame=19499 fps=473 q=-0.0 size=N/A time=00:13:33.27 bitrate=N/A speed=19.7x    frame=19755 fps=473 q=-0.0 size=N/A time=00:13:43.94 bitrate=N/A speed=19.7x    frame=20012 fps=473 q=-0.0 size=N/A time=00:13:54.66 bitrate=N/A speed=19.7x    frame=20272 fps=474 q=-0.0 size=N/A time=00:14:05.51 bitrate=N/A speed=19.8x    frame=20533 fps=474 q=-0.0 size=N/A time=00:14:16.39 bitrate=N/A speed=19.8x    frame=20791 fps=474 q=-0.0 size=N/A time=00:14:27.15 bitrate=N/A speed=19.8x    frame=21058 fps=475 q=-0.0 size=N/A time=00:14:38.29 bitrate=N/A speed=19.8x    frame=21310 fps=475 q=-0.0 size=N/A time=00:14:48.80 bitrate=N/A speed=19.8x    frame=21555 fps=475 q=-0.0 size=N/A time=00:14:59.02 bitrate=N/A speed=19.8x    frame=21811 fps=475 q=-0.0 size=N/A time=00:15:09.70 bitrate=N/A speed=19.8x    frame=22070 fps=476 q=-0.0 size=N/A time=00:15:20.50 bitrate=N/A speed=19.8x    frame=22315 fps=476 q=-0.0 size=N/A time=00:15:30.72 bitrate=N/A speed=19.8x    frame=22575 fps=476 q=-0.0 size=N/A time=00:15:41.56 bitrate=N/A speed=19.8x    frame=22825 fps=476 q=-0.0 size=N/A time=00:15:51.99 bitrate=N/A speed=19.9x    frame=23076 fps=476 q=-0.0 size=N/A time=00:16:02.50 bitrate=N/A speed=19.9x    frame=23325 fps=476 q=-0.0 size=N/A time=00:16:12.84 bitrate=N/A speed=19.9x    frame=23584 fps=477 q=-0.0 size=N/A time=00:16:23.64 bitrate=N/A speed=19.9x    frame=23837 fps=477 q=-0.0 size=N/A time=00:16:34.20 bitrate=N/A speed=19.9x    frame=24089 fps=477 q=-0.0 size=N/A time=00:16:44.71 bitrate=N/A speed=19.9x    frame=24332 fps=477 q=-0.0 size=N/A time=00:16:54.84 bitrate=N/A speed=19.9x    frame=24595 fps=477 q=-0.0 size=N/A time=00:17:05.81 bitrate=N/A speed=19.9x    frame=24843 fps=477 q=-0.0 size=N/A time=00:17:16.16 bitrate=N/A speed=19.9x    frame=25095 fps=477 q=-0.0 size=N/A time=00:17:26.67 bitrate=N/A speed=19.9x    frame=25349 fps=477 q=-0.0 size=N/A time=00:17:37.26 bitrate=N/A speed=19.9x    frame=25608 fps=477 q=-0.0 size=N/A time=00:17:48.06 bitrate=N/A speed=19.9x    frame=25863 fps=478 q=-0.0 size=N/A time=00:17:58.70 bitrate=N/A speed=19.9x    frame=26127 fps=478 q=-0.0 size=N/A time=00:18:09.71 bitrate=N/A speed=19.9x    frame=26383 fps=478 q=-0.0 size=N/A time=00:18:20.39 bitrate=N/A speed=19.9x    frame=26627 fps=478 q=-0.0 size=N/A time=00:18:30.56 bitrate=N/A speed=19.9x    frame=26856 fps=478 q=-0.0 size=N/A time=00:18:40.11 bitrate=N/A speed=19.9x    frame=27110 fps=478 q=-0.0 size=N/A time=00:18:50.71 bitrate=N/A speed=19.9x    frame=27359 fps=478 q=-0.0 size=N/A time=00:19:01.09 bitrate=N/A speed=19.9x    frame=27608 fps=478 q=-0.0 size=N/A time=00:19:11.48 bitrate=N/A speed=19.9x    frame=27845 fps=478 q=-0.0 size=N/A time=00:19:21.36 bitrate=N/A speed=19.9x    frame=28087 fps=478 q=-0.0 size=N/A time=00:19:31.46 bitrate=N/A speed=19.9x    frame=28336 fps=478 q=-0.0 size=N/A time=00:19:41.84 bitrate=N/A speed=19.9x    frame=28573 fps=478 q=-0.0 size=N/A time=00:19:51.73 bitrate=N/A speed=19.9x    frame=28800 fps=477 q=-0.0 size=N/A time=00:20:01.20 bitrate=N/A speed=19.9x    frame=29059 fps=477 q=-0.0 size=N/A time=00:20:12.00 bitrate=N/A speed=19.9x    frame=29318 fps=478 q=-0.0 size=N/A time=00:20:22.80 bitrate=N/A speed=19.9x    frame=29598 fps=478 q=-0.0 size=N/A time=00:20:34.48 bitrate=N/A speed=19.9x    frame=29871 fps=479 q=-0.0 size=N/A time=00:20:45.86 bitrate=N/A speed=  20x    frame=30142 fps=479 q=-0.0 size=N/A time=00:20:57.17 bitrate=N/A speed=  20x    frame=30411 fps=479 q=-0.0 size=N/A time=00:21:08.39 bitrate=N/A speed=  20x    frame=30700 fps=480 q=-0.0 size=N/A time=00:21:20.44 bitrate=N/A speed=  20x    frame=30972 fps=480 q=-0.0 size=N/A time=00:21:31.79 bitrate=N/A speed=  20x    frame=31266 fps=481 q=-0.0 size=N/A time=00:21:44.05 bitrate=N/A speed=20.1x    frame=31551 fps=482 q=-0.0 size=N/A time=00:21:55.93 bitrate=N/A speed=20.1x    frame=31796 fps=482 q=-0.0 size=N/A time=00:22:06.15 bitrate=N/A speed=20.1x    frame=32022 fps=481 q=-0.0 size=N/A time=00:22:15.58 bitrate=N/A speed=20.1x    frame=32248 fps=481 q=-0.0 size=N/A time=00:22:25.01 bitrate=N/A speed=20.1x    frame=32388 fps=479 q=-0.0 size=N/A time=00:22:30.84 bitrate=N/A speed=  20x    frame=32630 fps=479 q=-0.0 size=N/A time=00:22:40.94 bitrate=N/A speed=  20x    frame=32887 fps=479 q=-0.0 size=N/A time=00:22:51.66 bitrate=N/A speed=  20x    frame=33136 fps=479 q=-0.0 size=N/A time=00:23:02.04 bitrate=N/A speed=  20x    frame=33332 fps=479 q=-0.0 size=N/A time=00:23:10.22 bitrate=N/A speed=  20x    frame=33530 fps=478 q=-0.0 size=N/A time=00:23:18.48 bitrate=N/A speed=19.9x    frame=33783 fps=478 q=-0.0 size=N/A time=00:23:29.03 bitrate=N/A speed=19.9x    frame=34032 fps=478 q=-0.0 size=N/A time=00:23:39.41 bitrate=N/A speed=19.9x    frame=34216 fps=477 q=-0.0 size=N/A time=00:23:47.09 bitrate=N/A speed=19.9x    frame=34418 fps=477 q=-0.0 size=N/A time=00:23:55.51 bitrate=N/A speed=19.9x    [Parsed_psnr_10 @ 000002671eef5500] PSNR y:49.370799 u:51.620510 v:51.727214 average:50.011576 min:40.996646 max:inf
[out#0/null @ 000002671df454c0] video:14800KiB audio:269564KiB subtitle:0KiB other streams:0KiB global headers:0KiB muxing overhead: unknown
frame=34443 fps=477 q=-0.0 Lsize=N/A time=00:23:56.56 bitrate=N/A speed=19.9x    
